name GIL11_free1Moments.mot
datacolumns 7
datarows 81
range 0.13333328 0.79999995
endheader

                time	          RHipMoment	          LHipMoment	         RKneeMoment	         LKneeMoment	        RAnkleMoment	        LAnkleMoment	
          0.13333328	       -156.51693726	        727.91650391	         45.61167526	        387.61257935	        -35.79340744	        134.28530884	
          0.14166661	       -147.10560608	        706.14746094	         63.08583450	        381.43505859	        -37.38359451	        155.14979553	
          0.14999995	       -166.13316345	        673.02801514	         84.87481689	        371.23303223	        -38.10140991	        171.65682983	
          0.15833327	       -200.60652161	        637.17706299	        106.19501495	        352.90237427	        -37.61944199	        186.66050720	
          0.16666661	       -233.04493713	        611.86608887	        122.33895874	        324.31875610	        -35.74222183	        200.21556091	
          0.17499994	       -249.16058350	        592.14532471	        130.29409790	        289.80270386	        -32.56466675	        213.93719482	
          0.18333328	       -245.74545288	        570.90167236	        129.53045654	        253.45896912	        -28.46355057	        227.01977539	
          0.19166660	       -225.94894409	        544.46716309	        121.27887726	        215.82019043	        -23.99675751	        242.42732239	
          0.19999994	       -196.86811829	        515.37792969	        107.90724945	        177.83863831	        -19.75693703	        262.02127075	
          0.20833328	       -166.73327637	        485.63861084	         92.33417511	        138.91455078	        -16.20234871	        287.73757935	
          0.21666661	       -143.23110962	        444.46398926	         76.98141479	        108.76031494	        -13.58804226	        315.33435059	
          0.22499993	       -126.08362579	        390.29592896	         63.19998169	         89.19849396	        -11.92989922	        346.93991089	
          0.23333327	       -110.75344849	        326.79876709	         51.21852493	         82.86582184	        -11.04194641	        376.95495605	
          0.24166662	        -93.16131592	        286.12670898	         40.53069305	         75.39692688	        -10.64518166	        406.92150879	
          0.24999994	        -72.91104126	        273.98617554	         30.84144402	         65.64051819	        -10.46665573	        433.39837646	
          0.25833327	        -52.94267654	        285.67568970	         22.36480713	         49.75460815	        -10.31991386	        457.05041504	
          0.26666659	        -36.05746078	        310.98538208	         15.64702892	         28.08970833	        -10.11737347	        479.12704468	
          0.27499995	        -23.58218765	        337.92929077	         11.10915661	          0.85230041	         -9.85891247	        500.84750366	
          0.28333327	        -15.13942337	        351.83148193	          8.83697605	        -25.22829628	         -9.60466099	        521.52349854	
          0.29166663	         -8.99048233	        351.14309692	          8.72245884	        -50.57239532	         -9.43220234	        543.73468018	
          0.29999995	         -4.46209288	        333.18038940	         10.44157028	        -72.24386597	         -9.41698647	        563.91540527	
          0.30833328	         -1.71665645	        307.98620605	         13.29971313	        -92.64150238	         -9.59168339	        586.99591064	
          0.31666660	         -0.02658962	        284.10418701	         16.18709564	       -109.92620087	         -9.95174599	        609.11590576	
          0.32499993	          2.42501593	        265.46640015	         17.70625114	       -125.66924286	        -10.48532009	        633.91619873	
          0.33333325	          8.32648754	        249.29609680	         16.52330017	       -137.04995728	        -11.15443134	        658.22473145	
          0.34166661	         19.80610847	        239.06509399	         11.46781540	       -148.35113525	        -11.92487526	        684.57629395	
          0.34999993	         37.25418472	        229.11856079	          1.80848193	       -157.76142883	        -12.76948643	        711.07781982	
          0.35833329	         59.13158035	        222.06446838	        -12.00822544	       -170.12626648	        -13.62317085	        740.09771729	
          0.36666662	         80.12615967	        206.16410828	        -28.26813698	       -180.76019287	        -14.39832211	        769.52563477	
          0.37499994	         92.84439087	        184.29014587	        -44.71063614	       -192.33929443	        -14.97018528	        800.03894043	
          0.38333327	         94.32951355	        159.04365540	        -59.79079437	       -202.95741272	        -15.20792580	        829.88714600	
          0.39166662	         90.11473083	        138.31950378	        -73.77590942	       -216.73327637	        -15.05876446	        861.67388916	
          0.39999995	         90.94614410	        116.74834442	        -88.45828247	       -228.27905273	        -14.53746605	        892.39526367	
          0.40833327	        105.02951813	        109.31076813	       -106.03473663	       -245.06750488	        -13.72035217	        923.80938721	
          0.41666660	        134.72178650	        107.84983826	       -127.97439575	       -261.21798706	        -12.72762966	        953.20355225	
          0.42499995	        177.88903809	        130.29843140	       -154.23439026	       -288.44604492	        -11.62293625	        985.61718750	
          0.43333328	        227.94879150	        128.30177307	       -183.28793335	       -301.86251831	        -10.37279701	       1017.59588623	
          0.44166660	        274.74301147	        115.76388550	       -212.84197998	       -310.08251953	         -8.87258530	       1050.97595215	
          0.44999993	        310.49569702	        106.25704956	       -240.93951416	       -318.58850098	         -7.00924492	       1084.91235352	
          0.45833328	        334.95208740	         85.62210083	       -266.77899170	       -321.43060303	         -4.77455616	       1121.14245605	
          0.46666661	        353.76101685	         54.35059738	       -290.35720825	       -317.37167358	         -2.29078054	       1157.77453613	
          0.47499993	        370.27532959	         10.66063118	       -311.09335327	       -305.41906738	          0.24867530	       1195.90954590	
          0.48333326	        382.22738647	        -41.50580978	       -326.73352051	       -285.53298950	          2.62641859	       1232.97070313	
          0.49166662	        383.25857544	        -78.74026489	       -333.52120972	       -268.82501221	          4.64691401	       1268.60778809	
          0.49999994	        366.14422607	       -115.25783539	       -327.23245239	       -246.41841125	          6.14589739	       1300.06396484	
          0.50833327	        324.89682007	       -145.16511536	       -304.78186035	       -223.01959229	          6.92737007	       1327.78833008	
          0.51666665	        258.00216675	       -170.94224548	       -265.97518921	       -194.43136597	          6.73338556	       1346.90307617	
          0.52499998	        169.59944153	       -187.25735474	       -214.37297058	       -164.42306519	          5.27891541	       1358.75805664	
          0.53333330	         69.54372406	       -190.29447937	       -156.95291138	       -133.30625916	          2.35425162	       1359.11010742	
          0.54166663	         51.71084976	       -205.08459473	       -127.06060028	        -92.59661102	        -14.74946499	       1349.72021484	
          0.54999995	        506.07269287	       -204.81292725	       -260.78240967	        -55.59486389	        -81.81202698	       1325.35937500	
          0.55833328	        577.60516357	       -215.68836975	       -249.42347717	        -12.18292809	       -109.86135864	       1281.72265625	
          0.56666660	        484.83489990	       -233.94874573	       -157.49743652	         35.29333878	       -136.94783020	       1211.95410156	
          0.57499993	        378.00720215	       -243.96409607	        -42.71286011	         73.96363831	       -167.78907776	       1117.23156738	
          0.58333325	        324.59054565	       -237.60153198	         38.93557739	         97.94713593	       -174.30245972	        994.48834229	
          0.59166658	        482.07638550	       -252.99865723	         35.73519135	        121.48968506	       -155.67189026	        845.90661621	
          0.59999990	        571.22424316	       -287.54022217	        101.49459076	        142.12348938	       -148.25451660	        675.84942627	
          0.60833323	        527.48248291	       -301.88140869	        218.84954834	        135.48294067	       -126.56713104	        498.79199219	
          0.61666662	        568.74835205	       -295.34957886	        297.30065918	        102.64064026	        -97.42876434	        325.08477783	
          0.62499994	        608.59783936	       -370.86145020	        372.60812378	        103.81458282	        -68.38256073	        169.60740662	
          0.63333327	        595.58636475	       -462.26156616	        439.86380005	        126.67075348	        -40.05607986	         58.49504089	
          0.64166659	        584.66198730	       -476.48767090	        482.60757446	        135.54614258	        -11.52023697	         11.47688866	
          0.64999992	        573.89886475	       -443.15643311	        503.62622070	        132.70263672	         17.00756454	        -18.96579742	
          0.65833330	        561.64727783	       -367.24206543	        504.60061646	        107.75427246	         45.37561035	        -35.06576538	
          0.66666663	        554.24047852	       -306.95343018	        491.67782593	         97.02305603	         75.64649200	        -48.10950470	
          0.67499995	        537.19683838	       -244.36552429	        476.76431274	         85.18749237	        104.69471741	        -53.01607895	
          0.68333328	        506.48889160	       -173.05574036	        462.28369141	         64.69362640	        134.94763184	        -51.10311127	
          0.69166660	        468.20483398	       -167.37940979	        447.09265137	         87.62415314	        167.16441345	        -49.87274933	
          0.69999993	        424.48977661	       -164.03544617	        431.56524658	        108.20670319	        198.47065735	        -46.26953888	
          0.70833325	        390.52706909	       -156.90084839	        407.90225220	        122.51660156	        230.11953735	        -40.77587891	
          0.71666658	        359.75668335	       -145.24746704	        377.54751587	        128.94010925	        258.19674683	        -34.12943268	
          0.72499996	        330.94296265	       -129.58824158	        339.37490845	        127.57887268	        282.08618164	        -27.31002235	
          0.73333329	        306.12680054	       -111.72221375	        292.97399902	        120.30422211	        302.52487183	        -21.20680809	
          0.74166662	        286.76586914	        -92.93241882	        238.66305542	        109.33386230	        322.21493530	        -16.37042046	
          0.74999994	        269.72100830	        -76.49979401	        182.88656616	         97.10894012	        342.11972046	        -13.06819248	
          0.75833327	        245.24192810	        -62.90546417	        134.25169373	         84.85511780	        360.34570313	        -11.14011765	
          0.76666659	        214.23724365	        -50.78538513	         95.41667175	         72.84349060	        378.37841797	        -10.17340660	
          0.77499992	        183.31172180	        -43.93395233	         65.52584076	         61.48418427	        396.59799194	         -9.75617409	
          0.78333330	        158.34248352	        -44.47671890	         41.55933762	         51.27895355	        416.53225708	         -9.43483734	
          0.79166663	        148.86634827	        -48.56465149	         17.89536095	         41.27399826	        437.30899048	         -9.02699947	
          0.79999995	        154.30642700	        -54.92055511	         -8.13966656	         30.82486153	        458.60791016	         -8.66114426	
